<?xml version="1.0" standalone="no"?>
<!DOCTYPE svg PUBLIC "-//W3C//DTD SVG 20010904//EN"
 "http://www.w3.org/TR/2001/REC-SVG-20010904/DTD/svg10.dtd">
<svg version="1.0" xmlns="http://www.w3.org/2000/svg"
 width="512.000000pt" height="512.000000pt" viewBox="0 0 512.000000 512.000000"
 preserveAspectRatio="xMidYMid meet">
<metadata>
Created by potrace 1.14, written by Peter Selinger 2001-2017
</metadata>
<g transform="translate(0.000000,512.000000) scale(0.100000,-0.100000)"
fill="#000000" stroke="none">
<path d="M2140 5023 c-87 -30 -146 -85 -188 -173 -22 -47 -26 -69 -27 -165
l-2 -110 -389 -5 c-428 -6 -422 -5 -478 -70 -44 -53 -47 -89 -44 -429 l3 -316
32 -65 c18 -36 47 -81 65 -100 l32 -35 1 -500 c1 -528 2 -543 48 -610 35 -51
77 -86 133 -112 l54 -24 1194 -1 c657 0 1209 3 1227 7 90 19 177 96 210 185
18 47 21 79 22 223 0 92 3 168 6 168 3 1 15 3 26 4 30 4 146 24 225 40 76 15
189 36 219 41 54 9 79 21 91 45 8 14 12 91 13 230 l0 209 46 13 c25 8 49 12
53 10 4 -2 8 -66 7 -141 l0 -138 -44 -26 c-55 -33 -57 -43 -53 -252 3 -152 4
-159 27 -177 32 -26 78 -24 118 7 l33 25 33 -25 c54 -41 109 -32 135 22 11 21
9 329 -2 360 -4 12 -25 31 -47 42 l-39 20 -1 118 c0 64 0 155 0 202 2 133 -2
136 -204 189 -339 90 -501 133 -504 137 -2 2 -4 133 -5 291 -1 328 -4 341 -85
398 l-43 30 -392 3 -392 3 -1 103 c-1 109 -12 158 -49 218 -32 50 -70 84 -129
116 l-50 27 -420 2 c-360 2 -426 0 -465 -14z m746 -403 l1 -50 -298 0 -299 0
0 50 0 50 298 0 298 0 0 -50z m404 -364 c0 -150 -1 -155 -23 -173 -22 -17 -58
-18 -673 -17 -357 1 -657 2 -666 3 -32 2 -41 40 -40 180 0 75 1 142 1 149 1 9
148 12 701 12 l700 0 0 -154z m-1942 -830 c92 -48 267 -92 497 -125 136 -20
180 -26 305 -37 41 -3 78 -8 81 -10 4 -2 9 -20 12 -40 15 -90 95 -193 189
-240 134 -68 304 -38 412 73 41 43 85 124 93 175 3 18 6 34 6 34 1 1 43 5 92
9 118 10 139 12 208 21 45 5 57 4 58 -7 0 -8 1 -67 2 -131 3 -163 -11 -153
267 -203 47 -8 96 -17 110 -20 14 -3 39 -8 55 -10 17 -3 54 -10 84 -15 30 -6
55 -10 55 -10 1 0 0 -72 -1 -161 -2 -144 -4 -164 -24 -195 -43 -70 46 -65
-1259 -66 -1131 0 -1181 1 -1211 18 -18 11 -41 32 -53 47 -20 28 -21 38 -22
460 0 238 1 435 3 440 6 10 10 9 41 -7z m3105 -151 c2 -113 -1 -138 -13 -145
-13 -6 -52 -14 -173 -36 -10 -2 -26 -5 -35 -8 -9 -3 -37 -8 -62 -11 -25 -4
-61 -10 -80 -14 -64 -14 -183 -12 -284 4 -55 9 -102 18 -105 19 -3 2 -27 7
-53 10 -26 4 -53 8 -60 11 -7 2 -31 7 -53 10 -22 4 -47 8 -55 9 -12 2 -15 27
-16 144 -1 141 -1 142 22 142 13 0 33 -4 46 -9 13 -5 112 -33 221 -61 202 -53
221 -55 302 -29 27 9 236 65 278 75 28 7 50 13 82 22 17 5 31 8 33 7 2 -2 4
-64 5 -140z"/>
<path d="M1787 2206 c-26 -7 -51 -14 -55 -16 -4 -1 -17 -6 -30 -11 -13 -5 -25
-9 -28 -9 -2 0 -39 -17 -81 -38 -70 -34 -159 -84 -438 -247 -49 -29 -106 -62
-125 -73 -19 -11 -68 -39 -108 -62 -49 -28 -77 -39 -83 -33 -6 6 -27 39 -47
74 -58 98 -152 144 -246 118 -49 -14 -323 -174 -351 -206 -50 -57 -63 -159
-28 -227 18 -35 310 -553 342 -606 11 -19 24 -42 28 -50 4 -8 59 -107 123
-220 64 -113 129 -227 144 -255 105 -188 128 -218 190 -246 47 -21 136 -20
176 2 287 159 319 182 345 246 28 67 20 127 -30 219 -25 45 -45 86 -45 91 0
12 122 83 143 83 13 0 371 -94 632 -165 120 -33 211 -57 225 -60 8 -2 84 -22
169 -45 245 -66 385 -64 543 8 35 16 259 150 498 297 239 148 606 373 815 502
267 164 392 247 422 278 54 59 85 140 85 225 0 83 -5 112 -37 176 -80 163
-280 220 -504 145 -89 -30 -191 -78 -271 -127 -19 -11 -228 -133 -465 -270
-383 -222 -492 -281 -502 -271 -1 2 6 27 17 55 42 111 16 239 -66 331 -54 60
-122 95 -229 116 -130 26 -315 82 -570 172 -132 46 -265 91 -295 99 -66 17
-198 17 -263 0z m438 -226 c281 -102 420 -145 575 -180 168 -39 213 -60 246
-115 65 -112 -9 -245 -138 -245 -56 0 -540 122 -578 145 -23 14 -92 7 -110
-11 -32 -33 -30 -97 4 -119 52 -35 582 -171 746 -192 140 -19 275 3 391 62 29
16 577 333 844 490 50 29 113 64 141 78 225 113 387 107 451 -18 24 -45 21
-134 -7 -183 -20 -35 -60 -63 -319 -223 -163 -100 -318 -196 -346 -213 -27
-18 -156 -97 -285 -176 -129 -79 -257 -157 -285 -175 -27 -18 -102 -64 -165
-102 -63 -39 -148 -91 -188 -116 -172 -107 -301 -128 -477 -81 -49 13 -99 26
-110 29 -33 7 -73 18 -545 145 -250 68 -471 125 -490 127 -28 3 -53 -6 -130
-50 -84 -49 -96 -53 -106 -39 -10 16 -249 436 -302 532 -14 25 -42 74 -62 110
-21 36 -39 70 -40 75 -1 6 -5 15 -10 20 -7 9 88 67 414 254 105 60 212 122
226 131 8 5 51 28 95 50 116 57 174 71 275 66 75 -4 109 -13 285 -76z"/>
</g>
</svg>
